/* XPM */
static char *e81999f31cf745b39dc21e4d1318956armi90sOaf7MWfeo9[] = {
/* columns rows colors chars-per-pixel */
"64 64 46 1 ",
"  c black",
". c #181818",
"X c gray11",
"o c #28200C",
"O c #302410",
"+ c #382C14",
"@ c #202020",
"# c #212921",
"$ c #2E2B22",
"% c #282828",
"& c #2C2C2C",
"* c #313929",
"= c gray19",
"- c #343434",
"; c gray22",
": c #403018",
"> c #483818",
", c #543C1C",
"< c #5C4020",
"1 c #4C4436",
"2 c #6C4824",
"3 c #744C28",
"4 c gray25",
"5 c #484848",
"6 c #4C4C4C",
"7 c #524A42",
"8 c #4A5242",
"9 c #5E5246",
"0 c gray33",
"q c gray36",
"w c #685D4C",
"e c #736352",
"r c #736B52",
"t c #7B6B5A",
"y c #646464",
"u c gray44",
"i c #7C7C7C",
"p c #80502C",
"a c #885830",
"s c #A86840",
"d c gray55",
"f c gray66",
"g c #B4B4B4",
"h c #C0C0C0",
"j c #D0D0D0",
"k c #ECECEC",
/* pixels */
" oooooOO++OOO::+O:$+-:::O::Ooo. ooOOO:O::+:::OOoo  ooO+:--OOOo  ",
" o$$>>,1>>;-:,<,111<<1<,1111$O. oO=:11<<12<911:$o. o+=;1,11>;$o ",
" o111,,1>:1;$111111<99<9w9991:O o:1191,<,39w9<,1+o $:11112711,oo",
" +9w911>>::;;<1;<,<,<<2e9w9w97O o>111>>122999111+o.:1<17729711:o",
" +9w7:-::-::;<;;<<<,,13e<eeeeeO  -1<1111p<99w11>Oo.:<911<<1999+o",
" O99,-->>:::-,:111,,>,11<113ee+ o1799999<<197771+o.117<,111117O.",
" $99->>&Oo..................o@@.  ................  ..@O:111,9+o",
" 199,;-O.                                              .O11111:o",
" >1:>--. ...............................................-:1<<1O ",
" O>>::=. .@@@@@@@@@...........................@@@@@@@@@=59>>,-Oo",
" o--:+:. .@========.gggggggggggggggggggggggggg========;4q2$$$-Oo",
" O--$$$. .@=44444444Xkk0==================0kkX4444444446y1$$+=Oo",
" o==$$$. .@=44444444XjkfXXXXXXXXXXXXXXXXXXfkjX4444444450y1O$$$oo",
" oOo@oo. .@=444444444Xkk6XXXXXXXXXXXXXXXX6kkX44444444450y1oOOo. ",
"     oo  .@=4444444444XkjXXXXXXXXXXXXXXXXjkX444444444450y>  .   ",
"         .@=4444444444Xkk0XXXXXXXXXXXXXX0kkX444444444450y%      ",
"ooooo.   .@=44444444444XkjXXXXXXXXXXXXXXjkX4444444444450y .OoOo.",
":::+O.   .@=44444444444Xkk=XXXXXXXXXXXX=kkX4444444444450y%X>1,+o",
"12<,:o.  ...444444444444XkdXXXXXXXXXXXXdkX444444444444@#y=$17<-O",
"1999,o   ..gXX4444444444XkhXXXXXXXXXXXXhkX4444444444XXk#y6::<;*$",
";111,Oo  ..gkjX444444444XkkXXXXXXXXXXXXkkX444444444Xjkk#yr<:,11>",
"+,:-:Oo  ..gkkkXX4444444Xkk-XXXXXXXXXX-kkX4444444XXkkkk#y8:><-:$",
"$$:>-.   ..g0fkkkXX44444XkkqXXXXXXXXXXqkkX44444XXkkkf0k#y<$11-$O",
"$::>-o   ..g=X6jkkkXXXXXXkkuXXXXXXXXXXukkXXXXXXkkkj6X=k#ya$11;:O",
"$>>::Oo  ..g=XXX0jkkkkkkkkkdXXXXXXXXXXdkkkkkkkkkj0XXX=k#y2-,2=:+",
"@$:>;Oo  ..g=XXXXX=dhkkkkkkdXXXXXXXXXXdkkkkkkhd=XXXXX=k#y1><21::",
"$:>>>Oo  ..g=XXXXXXXXX-qudd0XXXXy=XXXX0dduq-XXXXXXXXX=k#y2$:,2,1",
"-1-=$.   ..g=XXXXXXXXXXXXXXXXXXykhXXXXXXXXXXXXXXXXXXX=k#y0$$-;;;",
"=$$$$.   ..g=XXXXXXXXXXXXXXXXXykj=XqXXXXXXXXXXXXXXXXX=k#y6$$$$$-",
"$$Ooo.   ..g=XXXXXXXXXXXXXXXXqkk=XhkyXXXXXXXXXXXXXXXX=k#y>O$$oO$",
"OOOoo    ..g=XXXXXXXXXXXXXXXXXhkyhkkkyXXXXXXXXXXXXXXX=k#y:oOooOO",
"....     ..g=XXXXXXXXXXXXXX=h=Xhkky=jkyXXXXXXXXXXXXXX=k#y:   ...",
".....    ..g=XXXXXXXXXXXXXXykj=ykkhX=h=XXXXXXXXXXXXXX=k#y     ..",
":::::$O  ..g=XXXXXXXXXXXXXXXykkkhykhXXXXXXXXXXXXXXXXX=k#y  .$$::",
"9997,>:  ..g=XXXXXXXXXXXXXXXXykhX=kkqXXXXXXXXXXXXXXXX=k#y% :1171",
"99111,>. ..g=XXXXXXXXXXXXXXXXXqX=jkyXXXXXXXXXXXXXXXXX=k#y> $-117",
"97111,>. ..g=XXXXXXXXXXXXXXXXXXXhkyXXXXXXXXXXXXXXXXXX=k#y: $-117",
"11,>-11. ..g=XXXXXXXXX-qudd0XXXX=yXXXX0dduq-XXXXXXXXX=k#y> +:11;",
",,>>>,,. ..g=XXXXX=dhkkkkkkdXXXXXXXXXXdkkkkkkhd=XXXXX=k#y< +>,11",
">,>>,>:. ..g=XXX0jkkkkkkkkkdXXXXXXXXXXdkkkkkkkkkj0XXX=k#y> +:11-",
"-1<>:--. ..g=X6jkkkXXXXXXkkuXXXXXXXXXXukkXXXXXXkkkj6X=k#y> O::;-",
"-;;-->:. ..g0fkkkXX44444XkkqXXXXXXXXXXqkkX44444XXkkkf0k#y1 O+$$O",
"----->:. ..gkkkXX4444444Xkk-XXXXXXXXXX-kkX444444XXXkkkk#y1 O+$$o",
">1;::--. ..gkjX444444444XkkXXXXXXXXXXXXkkX444444444Xjkk#y1 O$111",
"7<<21;:. ..gXX4444444444XkhXXXXXXXXXXXXhkX4444444444XXk#y> +:>17",
",<,>>>:. ...444444444444XkdXXXXXXXXXXXXdkX444444444444@#y% +>:11",
"1,>>,;-. .@=44444444444Xkk=XXXXXXXXXXXX=kkX4444444444450y% $->;-",
"1>,17,:. .@=44444444444XkjXXXXXXXXXXXXXXjkX4444444444450y  $-:17",
"1>119,:. .@=4444444444Xkk0XXXXXXXXXXXXXX0kkX444444444450y  $->7w",
"2-171:=. .@=4444444444XkjXXXXXXXXXXXXXXXXjkX444444444450y%.$->7w",
"=$11-$$. .@=444444444Xkk6XXXXXXXXXXXXXXXX6kkX44444444450y% $-:--",
"$==$$$O. .@=44444444XjkfXXXXXXXXXXXXXXXXXXfkjX4444444460y: o$$$$",
"OoOo...  .@=44444444Xkk0==================0kkX4444444460u> .oooo",
"         .@;4555555@kkkkkkkkkkkkkkkkkkkkkkkkkk@55555660qu,   ...",
".....    .=46000000############################0000000qyi2    ..",
"ooooo.   =5qyyyyyyyyyyyyyyyyyyyyyyyyyyyyyyyyyyyyyyyyyuuii,   .oo",
"711<,$$    +00r01a21 :000arrar0   103100r00sa2003061tt0aa: .o:<2",
"79;-11:O  $--:>>>Oo o:-----1>-. o=;>-=X.X. .@11;;17;-:--.  .$-17",
";1;;,11$  $11----Oo.o::>::,>:-o  =1;$.o197111:1171------.  .=1--",
"::11:--O  O::>:::Oo.o::-=->:--o o:-$.o$1=$$:>>,11,>>:$$=.  .$---",
":>----$o  .$$=::$o..o:$$$$$::-.  o..$,<:$$::-:::-:>-=..O.  o$->>",
"->----$o  .==$>:O. .o:$$$oo$O-     .-3<:-:----->-::-=. ..  O$-,,",
"----$Oo   .OOOOOo.. .OO$OooOOOo   oo$::O$$$O$OO:OO:-=ooo.  O=O+$",
"o.oo        .oooo    .o oo o       ooooooooooooo. .oOo.     .ooo"
};
